<svg width="24" height="24" viewBox="0 0 24 24" fill="none" xmlns="http://www.w3.org/2000/svg">
<path fill-rule="evenodd" clip-rule="evenodd" d="M3.1927 7.40005C2.91256 10.0029 2.92505 13.0049 3.31487 15.5973C3.53057 17.0316 4.70124 18.1313 6.14631 18.2569L7.65654 18.3882C10.8056 18.6619 13.9724 18.6619 17.1215 18.3882L18.6317 18.2569C20.0768 18.1313 21.2475 17.0316 21.4632 15.5973C21.853 13.0049 21.8655 10.0031 21.5853 7.40021C21.5491 7.09844 21.5084 6.79709 21.4632 6.49624C21.2475 5.06185 20.0768 3.9622 18.6317 3.83659L17.1215 3.70531C13.9724 3.43156 10.8056 3.43156 7.65654 3.70531L6.14631 3.83659C4.70124 3.9622 3.53057 5.06185 3.31487 6.49624C3.26964 6.79704 3.22891 7.09834 3.1927 7.40005ZM7.78644 5.19967C10.849 4.93344 13.929 4.93344 16.9916 5.19967L18.5018 5.33095C19.2562 5.39652 19.8672 5.97054 19.9798 6.7193C19.9915 6.79705 20.0029 6.87485 20.014 6.95267L14.453 10.0421C13.1694 10.7552 11.6086 10.7552 10.325 10.0421L4.76406 6.95271C4.77512 6.87487 4.7865 6.79707 4.79819 6.7193C4.91079 5.97054 5.52188 5.39652 6.27621 5.33095L7.78644 5.19967ZM20.1975 8.56664C20.3915 10.8344 20.3189 13.1192 19.9798 15.3742C19.8672 16.123 19.2562 16.697 18.5018 16.7625L16.9916 16.8938C13.929 17.1601 10.849 17.1601 7.78644 16.8938L6.27621 16.7625C5.52188 16.697 4.91079 16.123 4.79819 15.3742C4.4591 13.1193 4.38654 10.8344 4.58051 8.56668L9.59653 11.3534C11.3332 12.3181 13.4448 12.3182 15.1814 11.3534L20.1975 8.56664Z" fill="#95A8BC"/>
</svg>
