<svg width="189" height="93" viewBox="0 0 189 93" fill="none" xmlns="http://www.w3.org/2000/svg">
<path d="M9.68851 18.1699C9.6986 18.7755 9.64796 19.3805 9.53735 19.9762C9.49151 20.2805 9.34908 20.5625 9.13066 20.7814C8.89189 20.9542 8.59729 21.0341 8.30289 21.0058C7.51111 21.0058 7.25199 20.7386 7.11882 20.5035C6.92088 20.1472 6.68694 19.4774 6.68694 18.1699V16.36H0V18.6865C0.00906018 19.8958 0.201969 21.0968 0.572241 22.2492C1.02826 23.625 1.89547 24.8314 3.05915 25.7086C4.3188 26.7205 6.1183 27.237 8.33888 27.237C11.668 27.237 13.8885 26.1682 14.943 24.1018C15.9418 22.0152 16.4348 19.7266 16.3826 17.4182V1.90247H9.68851V18.1699Z" fill="white"/>
<path d="M37.0008 23.0401C37.5716 22.0353 37.9601 20.9392 38.1489 19.8016C38.2892 18.883 38.3614 17.9554 38.3648 17.0263V1.90247H31.6707V16.1534C31.6944 17.1319 31.5818 18.109 31.336 19.057C31.1959 19.6386 30.8626 20.1568 30.3895 20.5284C29.8262 20.8879 29.1617 21.0602 28.4928 21.0201C27.8156 21.065 27.142 20.8899 26.5745 20.5213C26.1031 20.1412 25.7716 19.6177 25.6316 19.0321C25.395 18.091 25.286 17.1229 25.3077 16.1534V1.90247H18.6207V17.0263C18.6207 23.7064 22.0362 27.237 28.4928 27.237C30.7026 27.237 32.5273 26.8309 33.9237 26.0328C35.2109 25.3384 36.2766 24.3019 37.0008 23.0401Z" fill="white"/>
<path d="M55.1515 12.113C53.6755 11.4965 52.1406 11.0286 50.57 10.7165C49.603 10.5333 48.6609 10.2392 47.7627 9.84002C47.4784 9.70108 47.1905 9.46594 47.1905 8.7712C47.189 8.6017 47.2265 8.43409 47.3001 8.28102C47.3737 8.12796 47.4814 7.99345 47.6152 7.88765C47.7915 7.73445 48.2702 7.47437 49.4867 7.47437C51.7036 7.47437 52.0743 8.31874 52.1463 9.14529L52.2183 9.95759H58.5813L58.5633 9.0491C58.5511 7.67973 58.2002 6.33418 57.5412 5.13009C56.8474 3.90465 55.7997 2.91221 54.5325 2.27991C53.059 1.55725 51.4292 1.20254 49.7854 1.24672C46.5067 1.24672 44.0954 1.98776 42.6162 3.44492C41.8883 4.15683 41.3152 5.00859 40.9321 5.94783C40.549 6.88707 40.3639 7.89396 40.3884 8.90659C40.3548 10.1088 40.5729 11.3048 41.029 12.4194C41.4232 13.3355 42.0417 14.1399 42.8285 14.7602C43.5043 15.2891 44.2597 15.7098 45.0671 16.0071C45.7869 16.2636 46.737 16.5415 47.9211 16.8372C49.1052 17.1329 49.8142 17.2968 50.1705 17.393C50.5621 17.5093 50.9427 17.6596 51.3078 17.8419C51.6637 18.0036 51.9748 18.2481 52.2147 18.5545C52.4215 18.8415 52.5242 19.1893 52.5062 19.5413C52.5062 19.9796 52.5062 21.0056 49.7026 21.0056C48.407 21.0056 47.5432 20.742 47.1473 20.2147C46.6994 19.6604 46.4546 18.9721 46.4527 18.2623V17.3716H39.6902V18.273C39.722 20.4601 40.4541 22.5808 41.7812 24.3296C43.2208 26.2678 45.8481 27.2475 49.627 27.2475C52.9993 27.2475 55.4826 26.4138 57.0158 24.7536C58.5308 23.1097 59.3457 20.95 59.2903 18.7255C59.2903 17.0474 58.9304 15.6508 58.1854 14.582C57.4276 13.4941 56.3764 12.6386 55.1515 12.113Z" fill="white"/>
<path d="M78.2241 1.90247H59.0126V8.13368H65.2856V26.5815H71.9726V8.13368H78.2241V1.90247Z" fill="white"/>
<path d="M20.1544 46.4402C20.1493 44.5638 19.894 42.6962 19.395 40.8859C18.8584 38.9297 17.7579 37.1705 16.2279 35.8233C14.6155 34.3733 12.3554 33.6287 9.51936 33.6287H0V59.3302H9.09107C14.1369 59.3302 20.1544 57.0928 20.1544 46.4402ZM6.52499 52.8995V40.0736H8.91832C10.7826 40.0736 13.2587 40.747 13.2587 46.5685C13.2587 48.7275 12.87 50.3664 12.1034 51.4423C11.3836 52.4363 10.2608 52.9173 8.6304 52.9173L6.52499 52.8995Z" fill="white"/>
<path d="M42.9612 46.4863C42.9701 44.7899 42.7732 43.0985 42.3745 41.4486C42.0035 39.9093 41.3548 38.4489 40.4598 37.1377C39.5667 35.839 38.3607 34.781 36.9508 34.0595C35.3877 33.2887 33.6581 32.9071 31.9122 32.9479C29.7816 32.9479 27.9533 33.3968 26.4741 34.2875C25.0451 35.1331 23.8582 36.3264 23.0263 37.754C22.241 39.1033 21.6751 40.5665 21.3491 42.0899C20.7277 44.9789 20.7277 47.9651 21.3491 50.8542C21.674 52.3796 22.2413 53.8442 23.0299 55.1936C23.872 56.6273 25.0715 57.8233 26.5137 58.6673C28.1525 59.6035 30.0207 60.0732 31.9122 60.0247C33.6591 60.0629 35.3888 59.6776 36.9508 58.9024C38.353 58.1786 39.5533 57.1238 40.4454 55.8313C41.3391 54.5194 41.9876 53.0592 42.3601 51.5204C42.7637 49.8723 42.9655 48.1821 42.9612 46.4863ZM31.9122 53.5832C31.2184 53.5887 30.5371 53.3997 29.9472 53.0381C29.3713 52.6819 28.8675 52.0085 28.4644 51.011C28.0253 49.9421 27.8021 48.4137 27.8021 46.472C27.8021 43.8748 28.198 41.9937 28.9754 40.8892C29.2896 40.4048 29.7253 40.0092 30.2401 39.7413C30.7548 39.4735 31.331 39.3423 31.9122 39.3608C32.6119 39.355 33.2996 39.5412 33.8989 39.8988C34.4747 40.2373 34.9786 40.9142 35.3852 41.9117C35.8279 42.9806 36.0547 44.5125 36.0547 46.4613C36.0547 50.1416 35.3349 51.638 34.7302 52.2472C33.8629 53.1486 32.9379 53.5832 31.9122 53.5832Z" fill="white"/>
<path d="M15.6773 85.3815H6.46381V66.5596H0V91.7018H15.6773V85.3815Z" fill="white"/>
<path d="M29.054 81.067C29.0776 82.0764 28.9699 83.0846 28.7337 84.0668C28.6324 84.6784 28.2968 85.2278 27.7968 85.6008C27.2967 85.9737 26.6707 86.1414 26.0489 86.0691C25.4086 86.1159 24.772 85.9394 24.2494 85.5703C23.7891 85.1695 23.4722 84.6321 23.346 84.0383C23.1186 83.0704 23.0134 82.0784 23.0329 81.0848V66.5596H16.5547V81.9719C16.5547 90.5653 21.7013 92.3716 26.0201 92.3716C28.1435 92.3716 29.8998 91.9512 31.2458 91.1282C32.494 90.4001 33.5132 89.3431 34.1898 88.0749C34.7473 87.0455 35.1291 85.932 35.3199 84.7794C35.4532 83.8445 35.5217 82.9018 35.525 81.9577V66.5596H29.0468L29.054 81.067Z" fill="white"/>
<path d="M40.2833 89.7281C41.2528 90.6682 42.4275 91.3752 43.7168 91.7945C44.952 92.1805 46.24 92.3752 47.5353 92.3717C49.9718 92.3717 51.9441 91.8123 53.3981 90.7079C54.7429 89.7256 55.7847 88.392 56.4069 86.8566C56.94 85.5051 57.2792 84.0864 57.4146 82.6419L57.5046 81.6728H51.0875L50.994 82.4602C50.8893 83.3943 50.5544 84.2886 50.0186 85.0645C49.5688 85.7272 48.8202 86.0478 47.7369 86.0478C47.349 86.0623 46.9621 86.0001 46.5987 85.8649C46.2354 85.7297 45.9029 85.5242 45.6206 85.2605C44.963 84.6066 44.4902 83.7933 44.2494 82.9019C43.9195 81.7502 43.7583 80.5576 43.7708 79.3606C43.7502 77.583 44.0575 75.8166 44.6777 74.1483C45.1852 72.8265 46.1173 72.2102 47.5893 72.2102C49.5796 72.2102 50.5765 73.222 50.8284 75.4915L50.9148 76.2859H57.2418L57.2058 75.3596C57.1556 73.7893 56.7885 72.2449 56.1261 70.8171C55.4201 69.3426 54.2943 68.1043 52.887 67.2544C51.4474 66.3495 49.576 65.8899 47.3806 65.8899C44.8037 65.8899 42.7019 66.5811 41.1147 67.9492C39.548 69.314 38.4111 71.0961 37.8396 73.083C37.2258 75.1903 36.9227 77.3742 36.9398 79.5672C36.8958 81.6462 37.1999 83.718 37.8396 85.6987C38.325 87.2124 39.1619 88.5924 40.2833 89.7281Z" fill="white"/>
<path d="M65.0587 83.7248L66.2643 82.2819L71.8104 91.7018H79.7642L70.7163 77.2014L79.4475 66.5596H71.2993L65.0587 74.3905V66.5596H58.5948V91.7018H65.0587V83.7248Z" fill="white"/>
<path d="M143.976 10.3294C144.478 10.8642 148.283 8.45442 152.512 4.91426C154.385 3.38809 156.147 1.7464 157.789 0L154.199 0C153.043 0.791967 151.765 1.74639 150.48 2.82265C146.28 6.33574 143.473 9.79467 143.976 10.3294Z" fill="white"/>
<path d="M175.35 0H162.992C162.073 2.1144 159.165 5.07457 155.561 8.20389C150.398 12.6864 145.759 15.8369 144.129 14.096L143.289 13.1657C141.71 11.4107 145.135 6.87182 150.34 2.35404C151.339 1.52237 152.329 0.704802 153.292 0H109.01C105.396 0.0129983 101.933 1.42803 99.3775 3.93656C96.8218 6.44509 95.3802 9.84366 95.3669 13.3912V66.0611L95.5321 66.0047C98.5539 64.9262 101.397 63.4158 103.969 61.5221C105.393 60.3642 106.741 59.1189 108.005 57.7937C109.189 56.652 110.381 55.5243 111.595 54.3966C112.191 53.4451 112.794 52.4936 113.376 51.528C113.703 50.9235 113.998 50.3024 114.259 49.6674C114.785 48.7077 115.59 47.9228 116.571 47.412C119.344 45.7296 121.984 43.8448 124.469 41.7736C126.279 40.2512 128.06 38.6866 129.768 37.0514C132.519 34.4898 134.815 31.4955 136.561 28.1921C137.631 26.0777 139.06 20.1996 139.125 20.0305C139.222 19.6896 139.447 19.3975 139.755 19.212C140.062 19.0266 140.429 18.9615 140.783 19.0296C141.711 19.1223 142.593 19.4716 143.326 20.0368C144.06 20.602 144.615 21.3599 144.926 22.2224C145.543 23.7028 145.928 25.2664 146.068 26.86C146.242 28.672 146.203 30.4976 145.953 32.3011C145.611 35.0733 144.767 37.7633 143.462 40.2442C142.862 41.2918 142.139 42.2664 141.307 43.148C139.153 45.5231 136.927 47.8208 134.795 50.196C134.446 50.6268 134.156 51.1007 133.933 51.6056C138.744 52.6205 152.775 55.052 159.287 55.4256V55.5807C158.986 55.5807 158.677 55.5807 158.375 55.5807L152.43 55.9683C150.664 56.0952 148.904 56.2361 147.138 56.3559C146.205 56.4194 145.257 56.4123 144.323 56.5039C142.241 56.7154 140.288 57.2581 139.074 59.1117C138.649 59.7156 138.363 60.4033 138.236 61.1269C138.109 61.8504 138.145 62.5924 138.341 63.3011C138.536 64.0097 138.887 64.668 139.368 65.2299C139.85 65.7918 140.45 66.2438 141.128 66.5544C141.336 66.6531 141.537 66.7659 141.846 66.928C139.907 67.7667 138.256 68.838 137.818 70.8819C137.589 71.8172 137.579 72.7912 137.787 73.731C137.996 74.6708 138.419 75.5521 139.024 76.3089C138.306 76.5767 137.588 76.7811 136.927 77.0771C135.858 77.5787 134.984 78.4087 134.439 79.4414C133.893 80.4742 133.706 81.6533 133.904 82.8001C133.994 83.651 134.254 84.476 134.671 85.2273C135.087 85.9786 135.652 86.6413 136.331 87.1769L136.547 87.3602C136.156 87.861 135.805 88.3913 135.498 88.946C135.049 89.8662 134.829 90.8788 134.859 91.8991H136.712C136.712 91.8074 136.712 91.7229 136.712 91.6312C136.675 90.7613 136.943 89.9052 137.473 89.2067C137.711 88.9066 138.028 88.6772 138.391 88.544C138.754 88.4109 139.147 88.3792 139.527 88.4526C141.078 88.6711 142.629 88.8825 144.18 89.1151C145.494 89.3125 146.808 89.538 148.122 89.7283C148.84 89.8411 149.615 89.8763 150.355 90.0032C151.891 90.2639 153.428 90.56 154.972 90.8348C156.293 91.0815 157.621 91.307 158.943 91.5396L160.774 91.885H175.357C178.971 91.872 182.434 90.4569 184.989 87.9484C187.545 85.4399 188.987 82.0413 189 78.4938V13.3912C188.987 9.84244 187.544 6.44281 184.987 3.93408C182.43 1.42535 178.965 0.0111418 175.35 0V0ZM140.352 63.4321C139.972 62.5993 139.943 61.6521 140.273 60.7985C140.602 59.9449 141.264 59.2546 142.112 58.8791C143.162 58.4689 144.284 58.2607 145.415 58.2659L149.163 58.0263L153.572 57.7514C155.539 57.6246 157.499 57.4766 159.467 57.3497L164.249 57.0678C165.096 57.0114 165.944 56.9762 166.777 56.8563C167.391 56.8262 167.997 57.011 168.485 57.3779C169.946 58.1022 171.083 59.3291 171.681 60.8244C172.104 62.0348 172.104 63.3494 171.681 64.5598C171.472 65.1871 171.221 65.8003 170.963 66.4205C170.919 66.5694 170.823 66.6982 170.691 66.7835C170.56 66.8689 170.401 66.9051 170.245 66.8857C168.672 66.8857 167.107 66.8857 165.541 66.935C163.234 66.9632 160.932 66.9984 158.634 67.0407L155.539 67.1042C153.375 67.159 151.211 67.0079 149.077 66.6531C148.086 66.491 147.095 66.3289 146.097 66.1456C145.565 66.047 145.041 65.9201 144.517 65.7791C143.146 65.3703 141.063 65.0884 140.352 63.4321ZM169.936 84.9568C169.986 87.6491 168.148 88.9389 166.073 89.9961C165.431 90.2821 164.752 90.4813 164.055 90.5881C163.684 90.6421 163.306 90.6253 162.942 90.5388C161.14 90.2005 159.352 89.834 157.55 89.4816C156.295 89.242 155.032 89.007 153.758 88.7768C152.035 88.4808 150.312 88.1777 148.581 87.924C146.851 87.6703 144.991 87.4306 143.182 87.184C141.803 86.9937 140.396 86.902 139.046 86.5778C138.34 86.3975 137.692 86.0442 137.163 85.5511C136.635 85.058 136.242 84.4413 136.023 83.7586C135.642 82.8248 135.589 81.7933 135.872 80.8266C136.065 80.198 136.43 79.633 136.925 79.1922C137.421 78.7514 138.03 78.4514 138.687 78.3246C140.001 78.0015 141.383 78.0702 142.657 78.5219C143.871 78.8955 145.113 79.1633 146.334 79.4946C147.978 79.9386 149.601 80.1994 151.267 80.5024C153.943 80.8957 156.64 81.1311 159.345 81.2072C162.447 81.3059 165.549 81.4469 168.679 81.5455C168.888 81.5376 169.093 81.5985 169.263 81.7186C169.432 81.8387 169.555 82.011 169.613 82.2081C169.987 83.07 170.099 84.0196 169.936 84.9427V84.9568ZM173.763 74.9556C173.763 77.3097 172.162 78.5924 170.115 79.4805C169.248 79.7607 168.327 79.8402 167.423 79.7131C163.38 79.5932 159.338 79.41 155.295 79.2831C153.167 79.136 151.053 78.8392 148.969 78.3951C147.597 78.0638 146.255 77.6903 144.89 77.3026C144.05 77.0771 143.189 76.8939 142.356 76.5978C141.83 76.4121 141.35 76.1223 140.943 75.7465C140.537 75.3706 140.213 74.9167 139.993 74.4129C139.689 73.8726 139.508 73.2733 139.465 72.6571C139.422 72.041 139.516 71.423 139.742 70.8466C140.187 69.9165 140.986 69.1952 141.968 68.838C143.85 67.9947 145.964 67.7889 147.978 68.253C150.046 68.7181 155.08 68.838 157.054 68.8239C158.49 68.8239 159.869 68.8239 161.283 68.7816L165.513 68.697L167.2 68.6618C168.169 68.6618 169.146 68.6618 170.115 68.6054C170.301 68.5887 170.488 68.6089 170.666 68.6646C170.844 68.7203 171.008 68.8104 171.149 68.9296C172.076 69.6289 172.803 70.5508 173.261 71.6063C173.719 72.6618 173.892 73.8154 173.763 74.9556Z" fill="white"/>
</svg>
