<svg width="188" height="38" viewBox="0 0 188 38" fill="none" xmlns="http://www.w3.org/2000/svg">
<path d="M6.88164 12.4526C6.88855 12.8676 6.85385 13.2823 6.77804 13.6905C6.74663 13.8991 6.64902 14.0923 6.49932 14.2423C6.33568 14.3608 6.13378 14.4155 5.93202 14.3962C5.38938 14.3962 5.21179 14.213 5.12052 14.0519C4.98487 13.8077 4.82454 13.3487 4.82454 12.4526V11.2122H0.241699V12.8066C0.247909 13.6354 0.380117 14.4585 0.63388 15.2483C0.946405 16.1912 1.54074 17.018 2.33826 17.6192C3.20155 18.3126 4.43483 18.6667 5.95668 18.6667C8.23824 18.6667 9.7601 17.9342 10.4828 16.518C11.1673 15.0879 11.5051 13.5195 11.4694 11.9374V1.30383H6.88164V12.4526Z" fill="#0076FF"/>
<path d="M25.5997 15.7904C25.9909 15.1017 26.2572 14.3505 26.3865 13.5709C26.4827 12.9413 26.5321 12.3056 26.5345 11.6688V1.30383H21.9467V11.0706C21.963 11.7412 21.8858 12.4108 21.7174 13.0606C21.6213 13.4591 21.3929 13.8143 21.0687 14.069C20.6826 14.3154 20.2273 14.4334 19.7688 14.4059C19.3046 14.4367 18.843 14.3167 18.4541 14.0641C18.131 13.8036 17.9039 13.4448 17.8079 13.0435C17.6457 12.3985 17.5711 11.7351 17.5859 11.0706V1.30383H13.0031V11.6688C13.0031 16.247 15.3438 18.6667 19.7688 18.6667C21.2832 18.6667 22.5338 18.3883 23.4908 17.8414C24.373 17.3655 25.1034 16.6551 25.5997 15.7904Z" fill="#0076FF"/>
<path d="M38.0394 8.30141C37.0279 7.87885 35.9759 7.55818 34.8995 7.34427C34.2368 7.21878 33.5911 7.0172 32.9756 6.74362C32.7807 6.64839 32.5834 6.48724 32.5834 6.01111C32.5824 5.89494 32.6081 5.78007 32.6585 5.67517C32.7089 5.57027 32.7828 5.47808 32.8744 5.40557C32.9953 5.30058 33.3234 5.12233 34.157 5.12233C35.6764 5.12233 35.9305 5.70101 35.9798 6.26749L36.0292 6.82419H40.39L40.3777 6.20156C40.3693 5.26307 40.1288 4.34091 39.6772 3.5157C39.2016 2.67586 38.4836 1.99569 37.6151 1.56235C36.6053 1.06709 35.4883 0.823987 34.3618 0.854264C32.1148 0.854264 30.4622 1.36214 29.4484 2.36079C28.9496 2.84869 28.5568 3.43243 28.2942 4.07613C28.0317 4.71984 27.9049 5.40989 27.9216 6.10389C27.8986 6.92779 28.0481 7.74748 28.3607 8.5114C28.6308 9.1392 29.0547 9.69052 29.5939 10.1156C30.0571 10.4781 30.5748 10.7664 31.1281 10.9702C31.6214 11.146 32.2726 11.3364 33.0841 11.5391C33.8956 11.7417 34.3815 11.8541 34.6257 11.92C34.8941 11.9997 35.1549 12.1027 35.4051 12.2276C35.649 12.3385 35.8623 12.506 36.0267 12.716C36.1684 12.9127 36.2388 13.151 36.2265 13.3923C36.2265 13.6927 36.2265 14.3959 34.305 14.3959C33.4171 14.3959 32.8251 14.2152 32.5538 13.8538C32.2468 13.4739 32.079 13.0022 32.0778 12.5158V11.9053H27.4431V12.5231C27.4649 14.022 27.9667 15.4754 28.8762 16.674C29.8628 18.0022 31.6634 18.6737 34.2532 18.6737C36.5644 18.6737 38.2663 18.1023 39.3171 16.9645C40.3554 15.8379 40.9138 14.3578 40.8759 12.8332C40.8759 11.6831 40.6293 10.726 40.1187 9.9935C39.5993 9.24789 38.8789 8.66161 38.0394 8.30141Z" fill="#0076FF"/>
<path d="M53.8517 1.30383H40.6853V5.57435H44.9845V18.2174H49.5673V5.57435H53.8517V1.30383Z" fill="#0076FF"/>
<path d="M71.8527 9.73508C71.8492 8.44907 71.6742 7.16915 71.3323 5.92849C70.9645 4.5878 70.2103 3.38216 69.1617 2.45885C68.0567 1.46509 66.5077 0.954773 64.5641 0.954773H58.04V18.5691H64.2705C67.7286 18.5691 71.8527 17.0357 71.8527 9.73508ZM62.5119 14.1619V5.37179H64.1521C65.4298 5.37179 67.1268 5.83327 67.1268 9.82298C67.1268 11.3026 66.8604 12.4258 66.335 13.1632C65.8417 13.8444 65.0722 14.1741 63.9548 14.1741L62.5119 14.1619Z" fill="#0076FF"/>
<path d="M87.4835 9.76671C87.4896 8.60408 87.3546 7.44492 87.0814 6.31416C86.8271 5.25923 86.3826 4.25838 85.7692 3.35972C85.1571 2.46965 84.3306 1.7446 83.3643 1.2501C82.293 0.721829 81.1077 0.460329 79.9112 0.488296C78.451 0.488296 77.198 0.795949 76.1842 1.40637C75.2048 1.98592 74.3914 2.80374 73.8213 3.78213C73.2831 4.70686 72.8952 5.70962 72.6718 6.75367C72.2459 8.73366 72.2459 10.7802 72.6718 12.7602C72.8945 13.8056 73.2833 14.8094 73.8237 15.7342C74.4009 16.7168 75.2229 17.5365 76.2113 18.1148C77.3345 18.7565 78.6149 19.0784 79.9112 19.0451C81.1083 19.0713 82.2938 18.8073 83.3643 18.276C84.3253 17.7799 85.1479 17.057 85.7593 16.1713C86.3718 15.2721 86.8163 14.2714 87.0715 13.2168C87.3482 12.0873 87.4865 10.9289 87.4835 9.76671ZM79.9112 14.6306C79.4356 14.6343 78.9688 14.5048 78.5644 14.257C78.1698 14.0128 77.8245 13.5513 77.5482 12.8677C77.2473 12.1351 77.0944 11.0877 77.0944 9.75694C77.0944 7.97695 77.3657 6.68774 77.8985 5.93082C78.1137 5.59879 78.4124 5.32772 78.7652 5.14412C79.1179 4.96052 79.5128 4.87067 79.9112 4.88333C80.3907 4.87932 80.862 5.00694 81.2727 5.25203C81.6673 5.48399 82.0127 5.94791 82.2914 6.63158C82.5948 7.36409 82.7502 8.41402 82.7502 9.74962C82.7502 12.2719 82.2568 13.2974 81.8425 13.7149C81.248 14.3327 80.6141 14.6306 79.9112 14.6306Z" fill="#0076FF"/>
<path d="M102.707 13.8419H96.3929V0.942505H91.963V18.1735H102.707V13.8419Z" fill="#0076FF"/>
<path d="M111.875 10.8851C111.891 11.5768 111.817 12.2678 111.655 12.941C111.586 13.3601 111.356 13.7367 111.013 13.9922C110.67 14.2478 110.241 14.3628 109.815 14.3132C109.376 14.3453 108.94 14.2243 108.582 13.9714C108.266 13.6967 108.049 13.3284 107.963 12.9214C107.807 12.2581 107.735 11.5782 107.748 10.8973V0.942505H103.308V11.5052C103.308 17.3946 106.836 18.6325 109.795 18.6325C111.251 18.6325 112.454 18.3444 113.377 17.7804C114.232 17.2814 114.931 16.557 115.394 15.6879C115.776 14.9824 116.038 14.2192 116.169 13.4293C116.26 12.7886 116.307 12.1425 116.31 11.4955V0.942505H111.87L111.875 10.8851Z" fill="#0076FF"/>
<path d="M119.57 16.821C120.235 17.4653 121.04 17.9498 121.923 18.2372C122.77 18.5017 123.653 18.6351 124.541 18.6327C126.21 18.6327 127.562 18.2494 128.559 17.4924C129.48 16.8193 130.194 15.9053 130.621 14.853C130.986 13.9268 131.218 12.9545 131.311 11.9645L131.373 11.3003H126.975L126.911 11.8399C126.839 12.4801 126.61 13.093 126.242 13.6248C125.934 14.079 125.421 14.2987 124.679 14.2987C124.413 14.3086 124.148 14.266 123.899 14.1734C123.65 14.0807 123.422 13.9399 123.228 13.7591C122.778 13.311 122.454 12.7536 122.289 12.1427C122.062 11.3534 121.952 10.536 121.96 9.71566C121.946 8.49741 122.157 7.28684 122.582 6.14348C122.93 5.23761 123.569 4.8152 124.578 4.8152C125.942 4.8152 126.625 5.50864 126.797 7.06399L126.857 7.60849H131.193L131.168 6.97365C131.134 5.89746 130.882 4.83898 130.428 3.8605C129.944 2.84991 129.173 2.00126 128.208 1.41881C127.222 0.79862 125.939 0.483643 124.434 0.483643C122.668 0.483643 121.228 0.95733 120.14 1.89494C119.066 2.8303 118.287 4.0517 117.896 5.41341C117.475 6.85757 117.267 8.35432 117.279 9.85728C117.249 11.2821 117.457 12.702 117.896 14.0594C118.228 15.0968 118.802 16.0426 119.57 16.821Z" fill="#0076FF"/>
<path d="M136.55 12.7066L137.376 11.7177L141.177 18.1735H146.628L140.427 8.23583L146.411 0.942505H140.827L136.55 6.30934V0.942505H132.12V18.1735H136.55V12.7066Z" fill="#0076FF"/>
<path d="M172.683 3.72602C172.856 3.91891 174.163 3.04967 175.616 1.77267C176.259 1.22215 176.865 0.629958 177.429 0L176.195 0C175.798 0.285677 175.359 0.629955 174.918 1.01818C173.475 2.28542 172.51 3.53312 172.683 3.72602Z" fill="#0076FF"/>
<path d="M183.311 0H179.066C178.751 0.732506 177.752 1.75802 176.513 2.84213C174.74 4.39504 173.147 5.48647 172.587 4.88338L172.298 4.56107C171.755 3.95309 172.932 2.38065 174.72 0.815524C175.063 0.527405 175.403 0.244169 175.734 0H160.523C159.281 0.00450309 158.092 0.494721 157.214 1.36377C156.336 2.23281 155.841 3.4102 155.836 4.63921V22.8859L155.893 22.8664C156.931 22.4928 157.908 21.9695 158.791 21.3135C159.28 20.9123 159.743 20.4809 160.177 20.0218C160.584 19.6263 160.994 19.2356 161.411 18.8449C161.615 18.5153 161.823 18.1857 162.022 17.8512C162.135 17.6418 162.236 17.4266 162.326 17.2066C162.507 16.8741 162.783 16.6022 163.12 16.4252C164.073 15.8424 164.98 15.1894 165.833 14.4719C166.455 13.9445 167.066 13.4024 167.654 12.836C168.598 11.9485 169.387 10.9112 169.987 9.76675C170.354 9.03425 170.845 6.99788 170.867 6.93928C170.901 6.82121 170.978 6.71998 171.084 6.65574C171.189 6.5915 171.316 6.56894 171.437 6.59256C171.756 6.62467 172.059 6.74566 172.311 6.94146C172.563 7.13727 172.753 7.39983 172.86 7.69864C173.072 8.2115 173.205 8.75319 173.253 9.30527C173.312 9.93303 173.299 10.5655 173.213 11.1903C173.096 12.1507 172.806 13.0826 172.357 13.942C172.151 14.305 171.903 14.6426 171.617 14.948C170.877 15.7709 170.113 16.5669 169.38 17.3897C169.26 17.539 169.161 17.7032 169.084 17.878C170.737 18.2296 175.556 19.072 177.793 19.2014V19.2552C177.69 19.2552 177.584 19.2552 177.48 19.2552L175.438 19.3894C174.831 19.4334 174.227 19.4822 173.62 19.5237C173.299 19.5457 172.974 19.5433 172.653 19.575C171.938 19.6483 171.267 19.8363 170.85 20.4784C170.704 20.6876 170.606 20.9259 170.562 21.1766C170.519 21.4272 170.531 21.6843 170.598 21.9298C170.665 22.1753 170.786 22.4033 170.951 22.598C171.116 22.7927 171.323 22.9493 171.556 23.0569C171.627 23.091 171.696 23.1301 171.802 23.1863C171.136 23.4768 170.569 23.848 170.419 24.5561C170.34 24.8801 170.336 25.2175 170.408 25.5431C170.48 25.8687 170.625 26.174 170.833 26.4362C170.586 26.5289 170.34 26.5998 170.113 26.7023C169.745 26.8761 169.445 27.1636 169.258 27.5214C169.07 27.8792 169.006 28.2877 169.074 28.685C169.105 28.9797 169.194 29.2655 169.338 29.5258C169.481 29.7861 169.675 30.0157 169.908 30.2012L169.982 30.2647C169.848 30.4382 169.727 30.6219 169.622 30.8141C169.467 31.1329 169.392 31.4837 169.402 31.8372H170.039C170.039 31.8054 170.039 31.7761 170.039 31.7444C170.026 31.443 170.118 31.1464 170.3 30.9044C170.382 30.8005 170.491 30.721 170.615 30.6749C170.74 30.6287 170.875 30.6178 171.006 30.6432C171.538 30.7189 172.071 30.7921 172.604 30.8727C173.055 30.9411 173.507 31.0192 173.958 31.0851C174.205 31.1242 174.471 31.1364 174.725 31.1804C175.253 31.2707 175.781 31.3733 176.311 31.4685C176.765 31.5539 177.221 31.6321 177.675 31.7126L178.304 31.8323H183.314C184.555 31.8278 185.744 31.3376 186.622 30.4685C187.5 29.5995 187.995 28.4221 188 27.1931V4.63921C187.995 3.40978 187.5 2.23202 186.622 1.36291C185.743 0.493794 184.553 0.00385992 183.311 0V0ZM171.289 21.9752C171.158 21.6867 171.149 21.3585 171.262 21.0628C171.375 20.7671 171.602 20.5279 171.894 20.3979C172.254 20.2557 172.64 20.1836 173.028 20.1854L174.316 20.1024L175.83 20.0072C176.506 19.9632 177.179 19.912 177.855 19.868L179.498 19.7703C179.789 19.7508 180.08 19.7386 180.366 19.6971C180.577 19.6866 180.785 19.7507 180.953 19.8778C181.455 20.1287 181.846 20.5538 182.051 21.0718C182.196 21.4911 182.196 21.9465 182.051 22.3659C181.979 22.5832 181.893 22.7956 181.804 23.0105C181.789 23.0621 181.756 23.1067 181.711 23.1362C181.666 23.1658 181.611 23.1784 181.557 23.1716C181.017 23.1716 180.48 23.1716 179.942 23.1887C179.149 23.1985 178.358 23.2107 177.569 23.2253L176.506 23.2473C175.763 23.2663 175.019 23.214 174.286 23.091C173.946 23.0349 173.605 22.9787 173.262 22.9152C173.08 22.8811 172.9 22.8371 172.72 22.7883C172.249 22.6467 171.533 22.549 171.289 21.9752ZM181.451 29.4321C181.469 30.3648 180.837 30.8117 180.124 31.1779C179.904 31.277 179.671 31.346 179.431 31.383C179.304 31.4017 179.174 31.3959 179.049 31.3659C178.43 31.2487 177.816 31.1218 177.197 30.9997C176.766 30.9167 176.332 30.8353 175.894 30.7555C175.302 30.653 174.71 30.548 174.116 30.4601C173.521 30.3722 172.883 30.2891 172.261 30.2037C171.787 30.1378 171.304 30.106 170.84 29.9937C170.598 29.9312 170.375 29.8088 170.194 29.638C170.012 29.4672 169.877 29.2535 169.802 29.017C169.671 28.6935 169.653 28.3362 169.75 28.0013C169.817 27.7835 169.942 27.5877 170.112 27.435C170.282 27.2823 170.491 27.1784 170.717 27.1345C171.168 27.0225 171.643 27.0463 172.081 27.2028C172.498 27.3323 172.925 27.425 173.344 27.5398C173.909 27.6936 174.466 27.784 175.038 27.889C175.958 28.0252 176.884 28.1067 177.813 28.1331C178.879 28.1673 179.944 28.2161 181.02 28.2503C181.091 28.2476 181.162 28.2687 181.22 28.3103C181.278 28.3519 181.321 28.4116 181.34 28.4799C181.469 28.7785 181.507 29.1074 181.451 29.4272V29.4321ZM182.766 25.9674C182.766 26.7829 182.216 27.2273 181.513 27.5349C181.215 27.632 180.899 27.6596 180.588 27.6155C179.199 27.574 177.811 27.5105 176.422 27.4665C175.691 27.4156 174.965 27.3128 174.249 27.1589C173.778 27.0441 173.317 26.9147 172.848 26.7804C172.559 26.7023 172.263 26.6388 171.977 26.5363C171.797 26.4719 171.632 26.3715 171.492 26.2413C171.353 26.1111 171.241 25.9539 171.166 25.7793C171.061 25.5921 170.999 25.3845 170.984 25.1711C170.969 24.9576 171.002 24.7435 171.08 24.5438C171.232 24.2216 171.507 23.9717 171.844 23.848C172.491 23.5558 173.217 23.4845 173.909 23.6453C174.619 23.8065 176.348 23.848 177.026 23.8431C177.52 23.8431 177.993 23.8431 178.479 23.8284L179.932 23.7991L180.512 23.7869C180.845 23.7869 181.18 23.7869 181.513 23.7674C181.577 23.7616 181.641 23.7686 181.702 23.7879C181.763 23.8072 181.82 23.8384 181.868 23.8797C182.186 24.122 182.436 24.4413 182.594 24.807C182.751 25.1727 182.81 25.5723 182.766 25.9674Z" fill="#0076FF"/>
<path d="M36.5703 25.0469V35H35.251V25.0469H36.5703ZM41.875 27.6035V28.5742H37.876V27.6035H41.875ZM39.2295 25.8057H40.4941V33.168C40.4941 33.4186 40.5329 33.6077 40.6104 33.7354C40.6878 33.863 40.7881 33.9473 40.9111 33.9883C41.0342 34.0293 41.1663 34.0498 41.3076 34.0498C41.4124 34.0498 41.5218 34.0407 41.6357 34.0225C41.7542 33.9997 41.8431 33.9814 41.9023 33.9678L41.9092 35C41.8089 35.0319 41.6768 35.0615 41.5127 35.0889C41.3532 35.1208 41.1595 35.1367 40.9316 35.1367C40.6217 35.1367 40.3369 35.0752 40.0771 34.9521C39.8174 34.8291 39.61 34.624 39.4551 34.3369C39.3047 34.0452 39.2295 33.6533 39.2295 33.1611V25.8057ZM44.6367 24.5V25.375C44.6367 25.6484 44.5889 25.9378 44.4932 26.2432C44.402 26.5439 44.2676 26.8356 44.0898 27.1182C43.9121 27.3962 43.6979 27.64 43.4473 27.8496L42.7227 27.3506C42.9368 27.0498 43.0986 26.7422 43.208 26.4277C43.3219 26.1087 43.3789 25.7646 43.3789 25.3955V24.5H44.6367ZM49.7021 33.0381C49.7021 32.8558 49.6611 32.6872 49.5791 32.5322C49.5016 32.3727 49.3398 32.2292 49.0938 32.1016C48.8522 31.9694 48.4876 31.8555 48 31.7598C47.5898 31.6732 47.2184 31.5706 46.8857 31.4521C46.5576 31.3337 46.2773 31.1901 46.0449 31.0215C45.8171 30.8529 45.6416 30.6546 45.5186 30.4268C45.3955 30.1989 45.334 29.9323 45.334 29.627C45.334 29.3353 45.3978 29.0596 45.5254 28.7998C45.6576 28.54 45.8421 28.3099 46.0791 28.1094C46.3206 27.9089 46.61 27.7516 46.9473 27.6377C47.2845 27.5238 47.6605 27.4668 48.0752 27.4668C48.6676 27.4668 49.1735 27.5716 49.5928 27.7812C50.012 27.9909 50.3333 28.2712 50.5566 28.6221C50.7799 28.9684 50.8916 29.3535 50.8916 29.7773H49.627C49.627 29.5723 49.5654 29.374 49.4424 29.1826C49.3239 28.9867 49.1484 28.8249 48.916 28.6973C48.6882 28.5697 48.4079 28.5059 48.0752 28.5059C47.7243 28.5059 47.4395 28.5605 47.2207 28.6699C47.0065 28.7747 46.8493 28.9092 46.749 29.0732C46.6533 29.2373 46.6055 29.4105 46.6055 29.5928C46.6055 29.7295 46.6283 29.8525 46.6738 29.9619C46.724 30.0667 46.8105 30.1647 46.9336 30.2559C47.0566 30.3424 47.2298 30.4245 47.4531 30.502C47.6764 30.5794 47.9613 30.6569 48.3076 30.7344C48.9137 30.8711 49.4128 31.0352 49.8047 31.2266C50.1966 31.418 50.4883 31.6527 50.6797 31.9307C50.8711 32.2087 50.9668 32.5459 50.9668 32.9424C50.9668 33.266 50.8984 33.5622 50.7617 33.8311C50.6296 34.0999 50.4359 34.3324 50.1807 34.5283C49.93 34.7197 49.6292 34.8701 49.2783 34.9795C48.932 35.0843 48.5423 35.1367 48.1094 35.1367C47.4577 35.1367 46.9062 35.0205 46.4551 34.7881C46.0039 34.5557 45.6621 34.2549 45.4297 33.8857C45.1973 33.5166 45.0811 33.127 45.0811 32.7168H46.3525C46.3708 33.0632 46.471 33.3389 46.6533 33.5439C46.8356 33.7445 47.0589 33.888 47.3232 33.9746C47.5876 34.0566 47.8496 34.0977 48.1094 34.0977C48.4557 34.0977 48.7451 34.0521 48.9775 33.9609C49.2145 33.8698 49.3945 33.7445 49.5176 33.585C49.6406 33.4255 49.7021 33.2432 49.7021 33.0381ZM60.4072 33.0381C60.4072 32.8558 60.3662 32.6872 60.2842 32.5322C60.2067 32.3727 60.0449 32.2292 59.7988 32.1016C59.5573 31.9694 59.1927 31.8555 58.7051 31.7598C58.2949 31.6732 57.9235 31.5706 57.5908 31.4521C57.2627 31.3337 56.9824 31.1901 56.75 31.0215C56.5221 30.8529 56.3467 30.6546 56.2236 30.4268C56.1006 30.1989 56.0391 29.9323 56.0391 29.627C56.0391 29.3353 56.1029 29.0596 56.2305 28.7998C56.3626 28.54 56.5472 28.3099 56.7842 28.1094C57.0257 27.9089 57.3151 27.7516 57.6523 27.6377C57.9896 27.5238 58.3656 27.4668 58.7803 27.4668C59.3727 27.4668 59.8786 27.5716 60.2979 27.7812C60.7171 27.9909 61.0384 28.2712 61.2617 28.6221C61.485 28.9684 61.5967 29.3535 61.5967 29.7773H60.332C60.332 29.5723 60.2705 29.374 60.1475 29.1826C60.029 28.9867 59.8535 28.8249 59.6211 28.6973C59.3932 28.5697 59.113 28.5059 58.7803 28.5059C58.4294 28.5059 58.1445 28.5605 57.9258 28.6699C57.7116 28.7747 57.5544 28.9092 57.4541 29.0732C57.3584 29.2373 57.3105 29.4105 57.3105 29.5928C57.3105 29.7295 57.3333 29.8525 57.3789 29.9619C57.429 30.0667 57.5156 30.1647 57.6387 30.2559C57.7617 30.3424 57.9349 30.4245 58.1582 30.502C58.3815 30.5794 58.6663 30.6569 59.0127 30.7344C59.6188 30.8711 60.1178 31.0352 60.5098 31.2266C60.9017 31.418 61.1934 31.6527 61.3848 31.9307C61.5762 32.2087 61.6719 32.5459 61.6719 32.9424C61.6719 33.266 61.6035 33.5622 61.4668 33.8311C61.3346 34.0999 61.141 34.3324 60.8857 34.5283C60.6351 34.7197 60.3343 34.8701 59.9834 34.9795C59.637 35.0843 59.2474 35.1367 58.8145 35.1367C58.1628 35.1367 57.6113 35.0205 57.1602 34.7881C56.709 34.5557 56.3672 34.2549 56.1348 33.8857C55.9023 33.5166 55.7861 33.127 55.7861 32.7168H57.0576C57.0758 33.0632 57.1761 33.3389 57.3584 33.5439C57.5407 33.7445 57.764 33.888 58.0283 33.9746C58.2926 34.0566 58.5547 34.0977 58.8145 34.0977C59.1608 34.0977 59.4502 34.0521 59.6826 33.9609C59.9196 33.8698 60.0996 33.7445 60.2227 33.585C60.3457 33.4255 60.4072 33.2432 60.4072 33.0381ZM64.707 27.6035V35H63.4355V27.6035H64.707ZM63.3398 25.6416C63.3398 25.4365 63.4014 25.2633 63.5244 25.1221C63.652 24.9808 63.8389 24.9102 64.085 24.9102C64.3265 24.9102 64.5111 24.9808 64.6387 25.1221C64.7708 25.2633 64.8369 25.4365 64.8369 25.6416C64.8369 25.8376 64.7708 26.0062 64.6387 26.1475C64.5111 26.2842 64.3265 26.3525 64.085 26.3525C63.8389 26.3525 63.652 26.2842 63.5244 26.1475C63.4014 26.0062 63.3398 25.8376 63.3398 25.6416ZM67.9951 29.0732V35H66.7236V27.6035H67.9268L67.9951 29.0732ZM67.7354 31.0215L67.1475 31.001C67.152 30.4951 67.2181 30.028 67.3457 29.5996C67.4733 29.1667 67.6624 28.7907 67.9131 28.4717C68.1637 28.1527 68.4759 27.9066 68.8496 27.7334C69.2233 27.5557 69.6562 27.4668 70.1484 27.4668C70.4948 27.4668 70.8138 27.5169 71.1055 27.6172C71.3971 27.7129 71.6501 27.8656 71.8643 28.0752C72.0785 28.2848 72.2448 28.5537 72.3633 28.8818C72.4818 29.21 72.541 29.6064 72.541 30.0713V35H71.2764V30.1328C71.2764 29.7454 71.2103 29.4355 71.0781 29.2031C70.9505 28.9707 70.7682 28.8021 70.5312 28.6973C70.2943 28.5879 70.0163 28.5332 69.6973 28.5332C69.3236 28.5332 69.0114 28.5993 68.7607 28.7314C68.5101 28.8636 68.3096 29.0459 68.1592 29.2783C68.0088 29.5107 67.8994 29.7773 67.8311 30.0781C67.7673 30.3743 67.7354 30.6888 67.7354 31.0215ZM72.5273 30.3242L71.6797 30.584C71.6842 30.1784 71.7503 29.7887 71.8779 29.415C72.0101 29.0413 72.1992 28.7087 72.4453 28.417C72.696 28.1253 73.0036 27.8952 73.3682 27.7266C73.7327 27.5534 74.1497 27.4668 74.6191 27.4668C75.0156 27.4668 75.3665 27.5192 75.6719 27.624C75.9818 27.7288 76.2415 27.8906 76.4512 28.1094C76.6654 28.3236 76.8271 28.5993 76.9365 28.9365C77.0459 29.2738 77.1006 29.6748 77.1006 30.1396V35H75.8291V30.126C75.8291 29.7113 75.763 29.39 75.6309 29.1621C75.5033 28.9297 75.321 28.7679 75.084 28.6768C74.8516 28.5811 74.5736 28.5332 74.25 28.5332C73.972 28.5332 73.7259 28.5811 73.5117 28.6768C73.2975 28.7725 73.1175 28.9046 72.9717 29.0732C72.8258 29.2373 72.7142 29.4264 72.6367 29.6406C72.5638 29.8548 72.5273 30.0827 72.5273 30.3242ZM80.2793 29.0254V37.8438H79.0078V27.6035H80.1699L80.2793 29.0254ZM85.2627 31.2402V31.3838C85.2627 31.9215 85.1989 32.4206 85.0713 32.8809C84.9437 33.3366 84.7568 33.7331 84.5107 34.0703C84.2692 34.4076 83.9707 34.6696 83.6152 34.8564C83.2598 35.0433 82.8519 35.1367 82.3916 35.1367C81.9222 35.1367 81.5075 35.0592 81.1475 34.9043C80.7874 34.7493 80.4821 34.5238 80.2314 34.2275C79.9808 33.9313 79.7803 33.5758 79.6299 33.1611C79.484 32.7464 79.3838 32.2793 79.3291 31.7598V30.9941C79.3838 30.4473 79.4863 29.9574 79.6367 29.5244C79.7871 29.0915 79.9854 28.7223 80.2314 28.417C80.4821 28.1071 80.7852 27.8724 81.1406 27.7129C81.4961 27.5488 81.9062 27.4668 82.3711 27.4668C82.8359 27.4668 83.2484 27.5579 83.6084 27.7402C83.9684 27.918 84.2715 28.1732 84.5176 28.5059C84.7637 28.8385 84.9482 29.2373 85.0713 29.7021C85.1989 30.1624 85.2627 30.6751 85.2627 31.2402ZM83.9912 31.3838V31.2402C83.9912 30.8711 83.9525 30.5247 83.875 30.2012C83.7975 29.873 83.6768 29.5859 83.5127 29.3398C83.3532 29.0892 83.1481 28.8932 82.8975 28.752C82.6468 28.6061 82.3483 28.5332 82.002 28.5332C81.6829 28.5332 81.4049 28.5879 81.168 28.6973C80.9355 28.8066 80.7373 28.9548 80.5732 29.1416C80.4092 29.3239 80.2747 29.5335 80.1699 29.7705C80.0697 30.0029 79.9945 30.2445 79.9443 30.4951V32.2656C80.0355 32.5846 80.1631 32.8854 80.3271 33.168C80.4912 33.446 80.71 33.6715 80.9834 33.8447C81.2568 34.0133 81.6009 34.0977 82.0156 34.0977C82.3574 34.0977 82.6514 34.027 82.8975 33.8857C83.1481 33.7399 83.3532 33.5417 83.5127 33.291C83.6768 33.0404 83.7975 32.7533 83.875 32.4297C83.9525 32.1016 83.9912 31.7529 83.9912 31.3838ZM88.25 24.5V35H86.9785V24.5H88.25ZM93.3496 35.1367C92.8346 35.1367 92.3675 35.0501 91.9482 34.877C91.5335 34.6992 91.1758 34.4508 90.875 34.1318C90.5788 33.8128 90.3509 33.4346 90.1914 32.9971C90.0319 32.5596 89.9521 32.0811 89.9521 31.5615V31.2744C89.9521 30.6729 90.041 30.1374 90.2188 29.668C90.3965 29.194 90.638 28.793 90.9434 28.4648C91.2487 28.1367 91.5951 27.8883 91.9824 27.7197C92.3698 27.5511 92.7708 27.4668 93.1855 27.4668C93.7142 27.4668 94.1699 27.5579 94.5527 27.7402C94.9401 27.9225 95.2568 28.1777 95.5029 28.5059C95.749 28.8294 95.9313 29.2122 96.0498 29.6543C96.1683 30.0918 96.2275 30.5703 96.2275 31.0898V31.6572H90.7041V30.625H94.9629V30.5293C94.9447 30.2012 94.8763 29.8822 94.7578 29.5723C94.6439 29.2624 94.4616 29.0072 94.2109 28.8066C93.9603 28.6061 93.6185 28.5059 93.1855 28.5059C92.8984 28.5059 92.6341 28.5674 92.3926 28.6904C92.151 28.8089 91.9437 28.9867 91.7705 29.2236C91.5973 29.4606 91.4629 29.75 91.3672 30.0918C91.2715 30.4336 91.2236 30.8278 91.2236 31.2744V31.5615C91.2236 31.9124 91.2715 32.2428 91.3672 32.5527C91.4674 32.8581 91.611 33.127 91.7979 33.3594C91.9893 33.5918 92.2194 33.7741 92.4883 33.9062C92.7617 34.0384 93.0716 34.1045 93.418 34.1045C93.8646 34.1045 94.2428 34.0133 94.5527 33.8311C94.8626 33.6488 95.1338 33.4049 95.3662 33.0996L96.1318 33.708C95.9723 33.9495 95.7695 34.1797 95.5234 34.3984C95.2773 34.6172 94.9743 34.7949 94.6143 34.9316C94.2588 35.0684 93.8372 35.1367 93.3496 35.1367ZM105.538 33.7354V29.9277C105.538 29.6361 105.479 29.3831 105.36 29.1689C105.246 28.9502 105.073 28.7816 104.841 28.6631C104.608 28.5446 104.321 28.4854 103.979 28.4854C103.66 28.4854 103.38 28.54 103.139 28.6494C102.902 28.7588 102.715 28.9023 102.578 29.0801C102.446 29.2578 102.38 29.4492 102.38 29.6543H101.115C101.115 29.39 101.184 29.1279 101.32 28.8682C101.457 28.6084 101.653 28.3737 101.908 28.1641C102.168 27.9499 102.478 27.7812 102.838 27.6582C103.202 27.5306 103.608 27.4668 104.055 27.4668C104.592 27.4668 105.066 27.5579 105.477 27.7402C105.891 27.9225 106.215 28.1982 106.447 28.5674C106.684 28.932 106.803 29.39 106.803 29.9414V33.3867C106.803 33.6328 106.823 33.8949 106.864 34.1729C106.91 34.4508 106.976 34.6901 107.062 34.8906V35H105.743C105.679 34.8542 105.629 34.6605 105.593 34.4189C105.556 34.1729 105.538 33.945 105.538 33.7354ZM105.757 30.5156L105.771 31.4043H104.492C104.132 31.4043 103.811 31.4339 103.528 31.4932C103.246 31.5479 103.009 31.6322 102.817 31.7461C102.626 31.86 102.48 32.0036 102.38 32.1768C102.28 32.3454 102.229 32.5436 102.229 32.7715C102.229 33.0039 102.282 33.2158 102.387 33.4072C102.492 33.5986 102.649 33.7513 102.858 33.8652C103.073 33.9746 103.335 34.0293 103.645 34.0293C104.032 34.0293 104.374 33.9473 104.67 33.7832C104.966 33.6191 105.201 33.4186 105.374 33.1816C105.552 32.9447 105.647 32.7145 105.661 32.4912L106.201 33.0996C106.169 33.291 106.083 33.5029 105.941 33.7354C105.8 33.9678 105.611 34.1911 105.374 34.4053C105.142 34.6149 104.864 34.7904 104.54 34.9316C104.221 35.0684 103.861 35.1367 103.46 35.1367C102.959 35.1367 102.519 35.0387 102.141 34.8428C101.767 34.6468 101.475 34.3848 101.266 34.0566C101.061 33.724 100.958 33.3525 100.958 32.9424C100.958 32.5459 101.035 32.1973 101.19 31.8965C101.345 31.5911 101.569 31.3382 101.86 31.1377C102.152 30.9326 102.503 30.7777 102.913 30.6729C103.323 30.568 103.781 30.5156 104.287 30.5156H105.757ZM110.057 29.1826V35H108.792V27.6035H109.988L110.057 29.1826ZM109.756 31.0215L109.229 31.001C109.234 30.4951 109.309 30.028 109.455 29.5996C109.601 29.1667 109.806 28.7907 110.07 28.4717C110.335 28.1527 110.649 27.9066 111.014 27.7334C111.383 27.5557 111.791 27.4668 112.237 27.4668C112.602 27.4668 112.93 27.5169 113.222 27.6172C113.513 27.7129 113.762 27.8678 113.967 28.082C114.176 28.2962 114.336 28.5742 114.445 28.916C114.555 29.2533 114.609 29.6657 114.609 30.1533V35H113.338V30.1396C113.338 29.7523 113.281 29.4424 113.167 29.21C113.053 28.973 112.887 28.8021 112.668 28.6973C112.449 28.5879 112.18 28.5332 111.861 28.5332C111.547 28.5332 111.26 28.5993 111 28.7314C110.745 28.8636 110.524 29.0459 110.337 29.2783C110.155 29.5107 110.011 29.7773 109.906 30.0781C109.806 30.3743 109.756 30.6888 109.756 31.0215ZM121.192 33.5645V24.5H122.464V35H121.302L121.192 33.5645ZM116.216 31.3838V31.2402C116.216 30.6751 116.284 30.1624 116.421 29.7021C116.562 29.2373 116.76 28.8385 117.016 28.5059C117.275 28.1732 117.583 27.918 117.938 27.7402C118.299 27.5579 118.7 27.4668 119.142 27.4668C119.606 27.4668 120.012 27.5488 120.358 27.7129C120.709 27.8724 121.006 28.1071 121.247 28.417C121.493 28.7223 121.687 29.0915 121.828 29.5244C121.969 29.9574 122.067 30.4473 122.122 30.9941V31.623C122.072 32.1654 121.974 32.653 121.828 33.0859C121.687 33.5189 121.493 33.888 121.247 34.1934C121.006 34.4987 120.709 34.7334 120.358 34.8975C120.007 35.057 119.597 35.1367 119.128 35.1367C118.695 35.1367 118.299 35.0433 117.938 34.8564C117.583 34.6696 117.275 34.4076 117.016 34.0703C116.76 33.7331 116.562 33.3366 116.421 32.8809C116.284 32.4206 116.216 31.9215 116.216 31.3838ZM117.487 31.2402V31.3838C117.487 31.7529 117.524 32.0993 117.597 32.4229C117.674 32.7464 117.793 33.0312 117.952 33.2773C118.112 33.5234 118.314 33.7171 118.561 33.8584C118.807 33.9951 119.101 34.0635 119.442 34.0635C119.862 34.0635 120.206 33.9746 120.475 33.7969C120.748 33.6191 120.967 33.3844 121.131 33.0928C121.295 32.8011 121.423 32.4844 121.514 32.1426V30.4951C121.459 30.2445 121.379 30.0029 121.274 29.7705C121.174 29.5335 121.042 29.3239 120.878 29.1416C120.718 28.9548 120.52 28.8066 120.283 28.6973C120.051 28.5879 119.775 28.5332 119.456 28.5332C119.11 28.5332 118.811 28.6061 118.561 28.752C118.314 28.8932 118.112 29.0892 117.952 29.3398C117.793 29.5859 117.674 29.873 117.597 30.2012C117.524 30.5247 117.487 30.8711 117.487 31.2402ZM129.792 35H128.527V26.8242C128.527 26.291 128.623 25.8421 128.814 25.4775C129.01 25.1084 129.291 24.8304 129.655 24.6436C130.02 24.4521 130.453 24.3564 130.954 24.3564C131.1 24.3564 131.246 24.3656 131.392 24.3838C131.542 24.402 131.688 24.4294 131.829 24.4658L131.761 25.498C131.665 25.4753 131.556 25.4593 131.433 25.4502C131.314 25.4411 131.196 25.4365 131.077 25.4365C130.808 25.4365 130.576 25.4912 130.38 25.6006C130.188 25.7054 130.043 25.8604 129.942 26.0654C129.842 26.2705 129.792 26.5234 129.792 26.8242V35ZM131.364 27.6035V28.5742H127.358V27.6035H131.364ZM137.134 33.7354V29.9277C137.134 29.6361 137.075 29.3831 136.956 29.1689C136.842 28.9502 136.669 28.7816 136.437 28.6631C136.204 28.5446 135.917 28.4854 135.575 28.4854C135.256 28.4854 134.976 28.54 134.734 28.6494C134.497 28.7588 134.311 28.9023 134.174 29.0801C134.042 29.2578 133.976 29.4492 133.976 29.6543H132.711C132.711 29.39 132.779 29.1279 132.916 28.8682C133.053 28.6084 133.249 28.3737 133.504 28.1641C133.764 27.9499 134.074 27.7812 134.434 27.6582C134.798 27.5306 135.204 27.4668 135.65 27.4668C136.188 27.4668 136.662 27.5579 137.072 27.7402C137.487 27.9225 137.811 28.1982 138.043 28.5674C138.28 28.932 138.398 29.39 138.398 29.9414V33.3867C138.398 33.6328 138.419 33.8949 138.46 34.1729C138.506 34.4508 138.572 34.6901 138.658 34.8906V35H137.339C137.275 34.8542 137.225 34.6605 137.188 34.4189C137.152 34.1729 137.134 33.945 137.134 33.7354ZM137.353 30.5156L137.366 31.4043H136.088C135.728 31.4043 135.407 31.4339 135.124 31.4932C134.841 31.5479 134.604 31.6322 134.413 31.7461C134.222 31.86 134.076 32.0036 133.976 32.1768C133.875 32.3454 133.825 32.5436 133.825 32.7715C133.825 33.0039 133.878 33.2158 133.982 33.4072C134.087 33.5986 134.244 33.7513 134.454 33.8652C134.668 33.9746 134.93 34.0293 135.24 34.0293C135.628 34.0293 135.969 33.9473 136.266 33.7832C136.562 33.6191 136.797 33.4186 136.97 33.1816C137.147 32.9447 137.243 32.7145 137.257 32.4912L137.797 33.0996C137.765 33.291 137.678 33.5029 137.537 33.7354C137.396 33.9678 137.207 34.1911 136.97 34.4053C136.737 34.6149 136.459 34.7904 136.136 34.9316C135.817 35.0684 135.457 35.1367 135.056 35.1367C134.554 35.1367 134.115 35.0387 133.736 34.8428C133.363 34.6468 133.071 34.3848 132.861 34.0566C132.656 33.724 132.554 33.3525 132.554 32.9424C132.554 32.5459 132.631 32.1973 132.786 31.8965C132.941 31.5911 133.164 31.3382 133.456 31.1377C133.748 30.9326 134.099 30.7777 134.509 30.6729C134.919 30.568 135.377 30.5156 135.883 30.5156H137.353ZM141.762 27.6035V35H140.49V27.6035H141.762ZM140.395 25.6416C140.395 25.4365 140.456 25.2633 140.579 25.1221C140.707 24.9808 140.894 24.9102 141.14 24.9102C141.381 24.9102 141.566 24.9808 141.693 25.1221C141.826 25.2633 141.892 25.4365 141.892 25.6416C141.892 25.8376 141.826 26.0062 141.693 26.1475C141.566 26.2842 141.381 26.3525 141.14 26.3525C140.894 26.3525 140.707 26.2842 140.579 26.1475C140.456 26.0062 140.395 25.8376 140.395 25.6416ZM145.057 28.7656V35H143.792V27.6035H145.022L145.057 28.7656ZM147.367 27.5625L147.36 28.7383C147.256 28.7155 147.155 28.7018 147.06 28.6973C146.968 28.6882 146.864 28.6836 146.745 28.6836C146.453 28.6836 146.196 28.7292 145.973 28.8203C145.749 28.9115 145.56 29.0391 145.405 29.2031C145.25 29.3672 145.127 29.5632 145.036 29.791C144.95 30.0143 144.893 30.2604 144.865 30.5293L144.51 30.7344C144.51 30.2878 144.553 29.8685 144.64 29.4766C144.731 29.0846 144.87 28.7383 145.057 28.4375C145.243 28.1322 145.48 27.8952 145.768 27.7266C146.059 27.5534 146.406 27.4668 146.807 27.4668C146.898 27.4668 147.003 27.4782 147.121 27.501C147.24 27.5192 147.322 27.5397 147.367 27.5625Z" fill="#0076FF"/>
</svg>
